<?xml version="1.0" encoding="utf-8" standalone="no"?>
<!DOCTYPE svg PUBLIC "-//W3C//DTD SVG 1.1//EN"
  "http://www.w3.org/Graphics/SVG/1.1/DTD/svg11.dtd">
<svg xmlns:xlink="http://www.w3.org/1999/xlink" width="460.8pt" height="345.6pt" viewBox="0 0 460.8 345.6" xmlns="http://www.w3.org/2000/svg" version="1.1">
 <metadata>
  <rdf:RDF xmlns:dc="http://purl.org/dc/elements/1.1/" xmlns:cc="http://creativecommons.org/ns#" xmlns:rdf="http://www.w3.org/1999/02/22-rdf-syntax-ns#">
   <cc:Work>
    <dc:type rdf:resource="http://purl.org/dc/dcmitype/StillImage"/>
    <dc:date>2025-05-29T19:58:41.165499</dc:date>
    <dc:format>image/svg+xml</dc:format>
    <dc:creator>
     <cc:Agent>
      <dc:title>Matplotlib v3.7.1, https://matplotlib.org/</dc:title>
     </cc:Agent>
    </dc:creator>
   </cc:Work>
  </rdf:RDF>
 </metadata>
 <defs>
  <style type="text/css">*{stroke-linejoin: round; stroke-linecap: butt}</style>
 </defs>
 <g id="figure_1">
  <g id="patch_1">
   <path d="M 0 345.6 
L 460.8 345.6 
L 460.8 0 
L 0 0 
z
" style="fill: #ffffff"/>
  </g>
  <g id="axes_1">
   <g id="patch_2">
    <path d="M 57.6 307.584 
L 414.72 307.584 
L 414.72 41.472 
L 57.6 41.472 
z
" style="fill: #ffffff"/>
   </g>
   <g id="matplotlib.axis_1">
    <g id="xtick_1">
     <g id="line2d_1">
      <defs>
       <path id="mdeeb78f6fc" d="M 0 0 
L 0 3.5 
" style="stroke: #000000; stroke-width: 0.8"/>
      </defs>
      <g>
       <use xlink:href="#mdeeb78f6fc" x="109.905455" y="307.584" style="stroke: #000000; stroke-width: 0.8"/>
      </g>
     </g>
     <g id="text_1">
      <!-- 2.2 -->
      <g transform="translate(101.953892 322.182437) scale(0.1 -0.1)">
       <defs>
        <path id="DejaVuSans-32" d="M 1228 531 
L 3431 531 
L 3431 0 
L 469 0 
L 469 531 
Q 828 903 1448 1529 
Q 2069 2156 2228 2338 
Q 2531 2678 2651 2914 
Q 2772 3150 2772 3378 
Q 2772 3750 2511 3984 
Q 2250 4219 1831 4219 
Q 1534 4219 1204 4116 
Q 875 4013 500 3803 
L 500 4441 
Q 881 4594 1212 4672 
Q 1544 4750 1819 4750 
Q 2544 4750 2975 4387 
Q 3406 4025 3406 3419 
Q 3406 3131 3298 2873 
Q 3191 2616 2906 2266 
Q 2828 2175 2409 1742 
Q 1991 1309 1228 531 
z
" transform="scale(0.015625)"/>
        <path id="DejaVuSans-2e" d="M 684 794 
L 1344 794 
L 1344 0 
L 684 0 
L 684 794 
z
" transform="scale(0.015625)"/>
       </defs>
       <use xlink:href="#DejaVuSans-32"/>
       <use xlink:href="#DejaVuSans-2e" x="63.623047"/>
       <use xlink:href="#DejaVuSans-32" x="95.410156"/>
      </g>
     </g>
    </g>
    <g id="xtick_2">
     <g id="line2d_2">
      <g>
       <use xlink:href="#mdeeb78f6fc" x="182.050909" y="307.584" style="stroke: #000000; stroke-width: 0.8"/>
      </g>
     </g>
     <g id="text_2">
      <!-- 2.4 -->
      <g transform="translate(174.099347 322.182437) scale(0.1 -0.1)">
       <defs>
        <path id="DejaVuSans-34" d="M 2419 4116 
L 825 1625 
L 2419 1625 
L 2419 4116 
z
M 2253 4666 
L 3047 4666 
L 3047 1625 
L 3713 1625 
L 3713 1100 
L 3047 1100 
L 3047 0 
L 2419 0 
L 2419 1100 
L 313 1100 
L 313 1709 
L 2253 4666 
z
" transform="scale(0.015625)"/>
       </defs>
       <use xlink:href="#DejaVuSans-32"/>
       <use xlink:href="#DejaVuSans-2e" x="63.623047"/>
       <use xlink:href="#DejaVuSans-34" x="95.410156"/>
      </g>
     </g>
    </g>
    <g id="xtick_3">
     <g id="line2d_3">
      <g>
       <use xlink:href="#mdeeb78f6fc" x="254.196364" y="307.584" style="stroke: #000000; stroke-width: 0.8"/>
      </g>
     </g>
     <g id="text_3">
      <!-- 2.6 -->
      <g transform="translate(246.244801 322.182437) scale(0.1 -0.1)">
       <defs>
        <path id="DejaVuSans-36" d="M 2113 2584 
Q 1688 2584 1439 2293 
Q 1191 2003 1191 1497 
Q 1191 994 1439 701 
Q 1688 409 2113 409 
Q 2538 409 2786 701 
Q 3034 994 3034 1497 
Q 3034 2003 2786 2293 
Q 2538 2584 2113 2584 
z
M 3366 4563 
L 3366 3988 
Q 3128 4100 2886 4159 
Q 2644 4219 2406 4219 
Q 1781 4219 1451 3797 
Q 1122 3375 1075 2522 
Q 1259 2794 1537 2939 
Q 1816 3084 2150 3084 
Q 2853 3084 3261 2657 
Q 3669 2231 3669 1497 
Q 3669 778 3244 343 
Q 2819 -91 2113 -91 
Q 1303 -91 875 529 
Q 447 1150 447 2328 
Q 447 3434 972 4092 
Q 1497 4750 2381 4750 
Q 2619 4750 2861 4703 
Q 3103 4656 3366 4563 
z
" transform="scale(0.015625)"/>
       </defs>
       <use xlink:href="#DejaVuSans-32"/>
       <use xlink:href="#DejaVuSans-2e" x="63.623047"/>
       <use xlink:href="#DejaVuSans-36" x="95.410156"/>
      </g>
     </g>
    </g>
    <g id="xtick_4">
     <g id="line2d_4">
      <g>
       <use xlink:href="#mdeeb78f6fc" x="326.341818" y="307.584" style="stroke: #000000; stroke-width: 0.8"/>
      </g>
     </g>
     <g id="text_4">
      <!-- 2.8 -->
      <g transform="translate(318.390256 322.182437) scale(0.1 -0.1)">
       <defs>
        <path id="DejaVuSans-38" d="M 2034 2216 
Q 1584 2216 1326 1975 
Q 1069 1734 1069 1313 
Q 1069 891 1326 650 
Q 1584 409 2034 409 
Q 2484 409 2743 651 
Q 3003 894 3003 1313 
Q 3003 1734 2745 1975 
Q 2488 2216 2034 2216 
z
M 1403 2484 
Q 997 2584 770 2862 
Q 544 3141 544 3541 
Q 544 4100 942 4425 
Q 1341 4750 2034 4750 
Q 2731 4750 3128 4425 
Q 3525 4100 3525 3541 
Q 3525 3141 3298 2862 
Q 3072 2584 2669 2484 
Q 3125 2378 3379 2068 
Q 3634 1759 3634 1313 
Q 3634 634 3220 271 
Q 2806 -91 2034 -91 
Q 1263 -91 848 271 
Q 434 634 434 1313 
Q 434 1759 690 2068 
Q 947 2378 1403 2484 
z
M 1172 3481 
Q 1172 3119 1398 2916 
Q 1625 2713 2034 2713 
Q 2441 2713 2670 2916 
Q 2900 3119 2900 3481 
Q 2900 3844 2670 4047 
Q 2441 4250 2034 4250 
Q 1625 4250 1398 4047 
Q 1172 3844 1172 3481 
z
" transform="scale(0.015625)"/>
       </defs>
       <use xlink:href="#DejaVuSans-32"/>
       <use xlink:href="#DejaVuSans-2e" x="63.623047"/>
       <use xlink:href="#DejaVuSans-38" x="95.410156"/>
      </g>
     </g>
    </g>
    <g id="xtick_5">
     <g id="line2d_5">
      <g>
       <use xlink:href="#mdeeb78f6fc" x="398.487273" y="307.584" style="stroke: #000000; stroke-width: 0.8"/>
      </g>
     </g>
     <g id="text_5">
      <!-- 3.0 -->
      <g transform="translate(390.53571 322.182437) scale(0.1 -0.1)">
       <defs>
        <path id="DejaVuSans-33" d="M 2597 2516 
Q 3050 2419 3304 2112 
Q 3559 1806 3559 1356 
Q 3559 666 3084 287 
Q 2609 -91 1734 -91 
Q 1441 -91 1130 -33 
Q 819 25 488 141 
L 488 750 
Q 750 597 1062 519 
Q 1375 441 1716 441 
Q 2309 441 2620 675 
Q 2931 909 2931 1356 
Q 2931 1769 2642 2001 
Q 2353 2234 1838 2234 
L 1294 2234 
L 1294 2753 
L 1863 2753 
Q 2328 2753 2575 2939 
Q 2822 3125 2822 3475 
Q 2822 3834 2567 4026 
Q 2313 4219 1838 4219 
Q 1578 4219 1281 4162 
Q 984 4106 628 3988 
L 628 4550 
Q 988 4650 1302 4700 
Q 1616 4750 1894 4750 
Q 2613 4750 3031 4423 
Q 3450 4097 3450 3541 
Q 3450 3153 3228 2886 
Q 3006 2619 2597 2516 
z
" transform="scale(0.015625)"/>
        <path id="DejaVuSans-30" d="M 2034 4250 
Q 1547 4250 1301 3770 
Q 1056 3291 1056 2328 
Q 1056 1369 1301 889 
Q 1547 409 2034 409 
Q 2525 409 2770 889 
Q 3016 1369 3016 2328 
Q 3016 3291 2770 3770 
Q 2525 4250 2034 4250 
z
M 2034 4750 
Q 2819 4750 3233 4129 
Q 3647 3509 3647 2328 
Q 3647 1150 3233 529 
Q 2819 -91 2034 -91 
Q 1250 -91 836 529 
Q 422 1150 422 2328 
Q 422 3509 836 4129 
Q 1250 4750 2034 4750 
z
" transform="scale(0.015625)"/>
       </defs>
       <use xlink:href="#DejaVuSans-33"/>
       <use xlink:href="#DejaVuSans-2e" x="63.623047"/>
       <use xlink:href="#DejaVuSans-30" x="95.410156"/>
      </g>
     </g>
    </g>
    <g id="text_6">
     <!-- $\gamma$ -->
     <g transform="translate(233.16 335.84025) scale(0.1 -0.1)">
      <defs>
       <path id="DejaVuSans-Oblique-3b3" d="M 1491 2950 
L 1838 788 
L 3456 3500 
L 4066 3500 
L 1972 0 
L 1713 -1331 
L 1138 -1331 
L 1397 0 
L 988 2613 
Q 925 3006 628 3006 
L 475 3006 
L 569 3500 
L 788 3500 
Q 1403 3500 1491 2950 
z
" transform="scale(0.015625)"/>
      </defs>
      <use xlink:href="#DejaVuSans-Oblique-3b3" transform="translate(0 0.3125)"/>
     </g>
    </g>
   </g>
   <g id="matplotlib.axis_2">
    <g id="ytick_1">
     <g id="line2d_6">
      <defs>
       <path id="mdfc3b2c473" d="M 0 0 
L -3.5 0 
" style="stroke: #000000; stroke-width: 0.8"/>
      </defs>
      <g>
       <use xlink:href="#mdfc3b2c473" x="57.6" y="256.69449" style="stroke: #000000; stroke-width: 0.8"/>
      </g>
     </g>
     <g id="text_7">
      <!-- 0.25 -->
      <g transform="translate(28.334375 260.493709) scale(0.1 -0.1)">
       <defs>
        <path id="DejaVuSans-35" d="M 691 4666 
L 3169 4666 
L 3169 4134 
L 1269 4134 
L 1269 2991 
Q 1406 3038 1543 3061 
Q 1681 3084 1819 3084 
Q 2600 3084 3056 2656 
Q 3513 2228 3513 1497 
Q 3513 744 3044 326 
Q 2575 -91 1722 -91 
Q 1428 -91 1123 -41 
Q 819 9 494 109 
L 494 744 
Q 775 591 1075 516 
Q 1375 441 1709 441 
Q 2250 441 2565 725 
Q 2881 1009 2881 1497 
Q 2881 1984 2565 2268 
Q 2250 2553 1709 2553 
Q 1456 2553 1204 2497 
Q 953 2441 691 2322 
L 691 4666 
z
" transform="scale(0.015625)"/>
       </defs>
       <use xlink:href="#DejaVuSans-30"/>
       <use xlink:href="#DejaVuSans-2e" x="63.623047"/>
       <use xlink:href="#DejaVuSans-32" x="95.410156"/>
       <use xlink:href="#DejaVuSans-35" x="159.033203"/>
      </g>
     </g>
    </g>
    <g id="ytick_2">
     <g id="line2d_7">
      <g>
       <use xlink:href="#mdfc3b2c473" x="57.6" y="200.222927" style="stroke: #000000; stroke-width: 0.8"/>
      </g>
     </g>
     <g id="text_8">
      <!-- 0.30 -->
      <g transform="translate(28.334375 204.022146) scale(0.1 -0.1)">
       <use xlink:href="#DejaVuSans-30"/>
       <use xlink:href="#DejaVuSans-2e" x="63.623047"/>
       <use xlink:href="#DejaVuSans-33" x="95.410156"/>
       <use xlink:href="#DejaVuSans-30" x="159.033203"/>
      </g>
     </g>
    </g>
    <g id="ytick_3">
     <g id="line2d_8">
      <g>
       <use xlink:href="#mdfc3b2c473" x="57.6" y="143.751364" style="stroke: #000000; stroke-width: 0.8"/>
      </g>
     </g>
     <g id="text_9">
      <!-- 0.35 -->
      <g transform="translate(28.334375 147.550583) scale(0.1 -0.1)">
       <use xlink:href="#DejaVuSans-30"/>
       <use xlink:href="#DejaVuSans-2e" x="63.623047"/>
       <use xlink:href="#DejaVuSans-33" x="95.410156"/>
       <use xlink:href="#DejaVuSans-35" x="159.033203"/>
      </g>
     </g>
    </g>
    <g id="ytick_4">
     <g id="line2d_9">
      <g>
       <use xlink:href="#mdfc3b2c473" x="57.6" y="87.279801" style="stroke: #000000; stroke-width: 0.8"/>
      </g>
     </g>
     <g id="text_10">
      <!-- 0.40 -->
      <g transform="translate(28.334375 91.07902) scale(0.1 -0.1)">
       <use xlink:href="#DejaVuSans-30"/>
       <use xlink:href="#DejaVuSans-2e" x="63.623047"/>
       <use xlink:href="#DejaVuSans-34" x="95.410156"/>
       <use xlink:href="#DejaVuSans-30" x="159.033203"/>
      </g>
     </g>
    </g>
    <g id="text_11">
     <!-- Information (bits) -->
     <g transform="translate(22.254687 218.089719) rotate(-90) scale(0.1 -0.1)">
      <defs>
       <path id="DejaVuSans-49" d="M 628 4666 
L 1259 4666 
L 1259 0 
L 628 0 
L 628 4666 
z
" transform="scale(0.015625)"/>
       <path id="DejaVuSans-6e" d="M 3513 2113 
L 3513 0 
L 2938 0 
L 2938 2094 
Q 2938 2591 2744 2837 
Q 2550 3084 2163 3084 
Q 1697 3084 1428 2787 
Q 1159 2491 1159 1978 
L 1159 0 
L 581 0 
L 581 3500 
L 1159 3500 
L 1159 2956 
Q 1366 3272 1645 3428 
Q 1925 3584 2291 3584 
Q 2894 3584 3203 3211 
Q 3513 2838 3513 2113 
z
" transform="scale(0.015625)"/>
       <path id="DejaVuSans-66" d="M 2375 4863 
L 2375 4384 
L 1825 4384 
Q 1516 4384 1395 4259 
Q 1275 4134 1275 3809 
L 1275 3500 
L 2222 3500 
L 2222 3053 
L 1275 3053 
L 1275 0 
L 697 0 
L 697 3053 
L 147 3053 
L 147 3500 
L 697 3500 
L 697 3744 
Q 697 4328 969 4595 
Q 1241 4863 1831 4863 
L 2375 4863 
z
" transform="scale(0.015625)"/>
       <path id="DejaVuSans-6f" d="M 1959 3097 
Q 1497 3097 1228 2736 
Q 959 2375 959 1747 
Q 959 1119 1226 758 
Q 1494 397 1959 397 
Q 2419 397 2687 759 
Q 2956 1122 2956 1747 
Q 2956 2369 2687 2733 
Q 2419 3097 1959 3097 
z
M 1959 3584 
Q 2709 3584 3137 3096 
Q 3566 2609 3566 1747 
Q 3566 888 3137 398 
Q 2709 -91 1959 -91 
Q 1206 -91 779 398 
Q 353 888 353 1747 
Q 353 2609 779 3096 
Q 1206 3584 1959 3584 
z
" transform="scale(0.015625)"/>
       <path id="DejaVuSans-72" d="M 2631 2963 
Q 2534 3019 2420 3045 
Q 2306 3072 2169 3072 
Q 1681 3072 1420 2755 
Q 1159 2438 1159 1844 
L 1159 0 
L 581 0 
L 581 3500 
L 1159 3500 
L 1159 2956 
Q 1341 3275 1631 3429 
Q 1922 3584 2338 3584 
Q 2397 3584 2469 3576 
Q 2541 3569 2628 3553 
L 2631 2963 
z
" transform="scale(0.015625)"/>
       <path id="DejaVuSans-6d" d="M 3328 2828 
Q 3544 3216 3844 3400 
Q 4144 3584 4550 3584 
Q 5097 3584 5394 3201 
Q 5691 2819 5691 2113 
L 5691 0 
L 5113 0 
L 5113 2094 
Q 5113 2597 4934 2840 
Q 4756 3084 4391 3084 
Q 3944 3084 3684 2787 
Q 3425 2491 3425 1978 
L 3425 0 
L 2847 0 
L 2847 2094 
Q 2847 2600 2669 2842 
Q 2491 3084 2119 3084 
Q 1678 3084 1418 2786 
Q 1159 2488 1159 1978 
L 1159 0 
L 581 0 
L 581 3500 
L 1159 3500 
L 1159 2956 
Q 1356 3278 1631 3431 
Q 1906 3584 2284 3584 
Q 2666 3584 2933 3390 
Q 3200 3197 3328 2828 
z
" transform="scale(0.015625)"/>
       <path id="DejaVuSans-61" d="M 2194 1759 
Q 1497 1759 1228 1600 
Q 959 1441 959 1056 
Q 959 750 1161 570 
Q 1363 391 1709 391 
Q 2188 391 2477 730 
Q 2766 1069 2766 1631 
L 2766 1759 
L 2194 1759 
z
M 3341 1997 
L 3341 0 
L 2766 0 
L 2766 531 
Q 2569 213 2275 61 
Q 1981 -91 1556 -91 
Q 1019 -91 701 211 
Q 384 513 384 1019 
Q 384 1609 779 1909 
Q 1175 2209 1959 2209 
L 2766 2209 
L 2766 2266 
Q 2766 2663 2505 2880 
Q 2244 3097 1772 3097 
Q 1472 3097 1187 3025 
Q 903 2953 641 2809 
L 641 3341 
Q 956 3463 1253 3523 
Q 1550 3584 1831 3584 
Q 2591 3584 2966 3190 
Q 3341 2797 3341 1997 
z
" transform="scale(0.015625)"/>
       <path id="DejaVuSans-74" d="M 1172 4494 
L 1172 3500 
L 2356 3500 
L 2356 3053 
L 1172 3053 
L 1172 1153 
Q 1172 725 1289 603 
Q 1406 481 1766 481 
L 2356 481 
L 2356 0 
L 1766 0 
Q 1100 0 847 248 
Q 594 497 594 1153 
L 594 3053 
L 172 3053 
L 172 3500 
L 594 3500 
L 594 4494 
L 1172 4494 
z
" transform="scale(0.015625)"/>
       <path id="DejaVuSans-69" d="M 603 3500 
L 1178 3500 
L 1178 0 
L 603 0 
L 603 3500 
z
M 603 4863 
L 1178 4863 
L 1178 4134 
L 603 4134 
L 603 4863 
z
" transform="scale(0.015625)"/>
       <path id="DejaVuSans-20" transform="scale(0.015625)"/>
       <path id="DejaVuSans-28" d="M 1984 4856 
Q 1566 4138 1362 3434 
Q 1159 2731 1159 2009 
Q 1159 1288 1364 580 
Q 1569 -128 1984 -844 
L 1484 -844 
Q 1016 -109 783 600 
Q 550 1309 550 2009 
Q 550 2706 781 3412 
Q 1013 4119 1484 4856 
L 1984 4856 
z
" transform="scale(0.015625)"/>
       <path id="DejaVuSans-62" d="M 3116 1747 
Q 3116 2381 2855 2742 
Q 2594 3103 2138 3103 
Q 1681 3103 1420 2742 
Q 1159 2381 1159 1747 
Q 1159 1113 1420 752 
Q 1681 391 2138 391 
Q 2594 391 2855 752 
Q 3116 1113 3116 1747 
z
M 1159 2969 
Q 1341 3281 1617 3432 
Q 1894 3584 2278 3584 
Q 2916 3584 3314 3078 
Q 3713 2572 3713 1747 
Q 3713 922 3314 415 
Q 2916 -91 2278 -91 
Q 1894 -91 1617 61 
Q 1341 213 1159 525 
L 1159 0 
L 581 0 
L 581 4863 
L 1159 4863 
L 1159 2969 
z
" transform="scale(0.015625)"/>
       <path id="DejaVuSans-73" d="M 2834 3397 
L 2834 2853 
Q 2591 2978 2328 3040 
Q 2066 3103 1784 3103 
Q 1356 3103 1142 2972 
Q 928 2841 928 2578 
Q 928 2378 1081 2264 
Q 1234 2150 1697 2047 
L 1894 2003 
Q 2506 1872 2764 1633 
Q 3022 1394 3022 966 
Q 3022 478 2636 193 
Q 2250 -91 1575 -91 
Q 1294 -91 989 -36 
Q 684 19 347 128 
L 347 722 
Q 666 556 975 473 
Q 1284 391 1588 391 
Q 1994 391 2212 530 
Q 2431 669 2431 922 
Q 2431 1156 2273 1281 
Q 2116 1406 1581 1522 
L 1381 1569 
Q 847 1681 609 1914 
Q 372 2147 372 2553 
Q 372 3047 722 3315 
Q 1072 3584 1716 3584 
Q 2034 3584 2315 3537 
Q 2597 3491 2834 3397 
z
" transform="scale(0.015625)"/>
       <path id="DejaVuSans-29" d="M 513 4856 
L 1013 4856 
Q 1481 4119 1714 3412 
Q 1947 2706 1947 2009 
Q 1947 1309 1714 600 
Q 1481 -109 1013 -844 
L 513 -844 
Q 928 -128 1133 580 
Q 1338 1288 1338 2009 
Q 1338 2731 1133 3434 
Q 928 4138 513 4856 
z
" transform="scale(0.015625)"/>
      </defs>
      <use xlink:href="#DejaVuSans-49"/>
      <use xlink:href="#DejaVuSans-6e" x="29.492188"/>
      <use xlink:href="#DejaVuSans-66" x="92.871094"/>
      <use xlink:href="#DejaVuSans-6f" x="128.076172"/>
      <use xlink:href="#DejaVuSans-72" x="189.257812"/>
      <use xlink:href="#DejaVuSans-6d" x="228.621094"/>
      <use xlink:href="#DejaVuSans-61" x="326.033203"/>
      <use xlink:href="#DejaVuSans-74" x="387.3125"/>
      <use xlink:href="#DejaVuSans-69" x="426.521484"/>
      <use xlink:href="#DejaVuSans-6f" x="454.304688"/>
      <use xlink:href="#DejaVuSans-6e" x="515.486328"/>
      <use xlink:href="#DejaVuSans-20" x="578.865234"/>
      <use xlink:href="#DejaVuSans-28" x="610.652344"/>
      <use xlink:href="#DejaVuSans-62" x="649.666016"/>
      <use xlink:href="#DejaVuSans-69" x="713.142578"/>
      <use xlink:href="#DejaVuSans-74" x="740.925781"/>
      <use xlink:href="#DejaVuSans-73" x="780.134766"/>
      <use xlink:href="#DejaVuSans-29" x="832.234375"/>
     </g>
    </g>
   </g>
   <g id="LineCollection_1">
    <path d="M 73.832727 167.471617 
L 73.832727 74.307903 
" clip-path="url(#p77abb29e12)" style="fill: none; stroke: #0000ff; stroke-opacity: 0.7; stroke-width: 1.5"/>
    <path d="M 109.905455 209.114761 
L 109.905455 113.7714 
" clip-path="url(#p77abb29e12)" style="fill: none; stroke: #0000ff; stroke-opacity: 0.7; stroke-width: 1.5"/>
    <path d="M 145.978182 201.233381 
L 145.978182 118.366671 
" clip-path="url(#p77abb29e12)" style="fill: none; stroke: #0000ff; stroke-opacity: 0.7; stroke-width: 1.5"/>
    <path d="M 182.050909 168.095902 
L 182.050909 89.610902 
" clip-path="url(#p77abb29e12)" style="fill: none; stroke: #0000ff; stroke-opacity: 0.7; stroke-width: 1.5"/>
    <path d="M 218.123636 228.31283 
L 218.123636 145.790256 
" clip-path="url(#p77abb29e12)" style="fill: none; stroke: #0000ff; stroke-opacity: 0.7; stroke-width: 1.5"/>
    <path d="M 254.196364 221.652941 
L 254.196364 149.651382 
" clip-path="url(#p77abb29e12)" style="fill: none; stroke: #0000ff; stroke-opacity: 0.7; stroke-width: 1.5"/>
    <path d="M 290.269091 249.337236 
L 290.269091 171.432663 
" clip-path="url(#p77abb29e12)" style="fill: none; stroke: #0000ff; stroke-opacity: 0.7; stroke-width: 1.5"/>
    <path d="M 326.341818 266.626941 
L 326.341818 189.665672 
" clip-path="url(#p77abb29e12)" style="fill: none; stroke: #0000ff; stroke-opacity: 0.7; stroke-width: 1.5"/>
    <path d="M 362.414545 217.350636 
L 362.414545 144.223401 
" clip-path="url(#p77abb29e12)" style="fill: none; stroke: #0000ff; stroke-opacity: 0.7; stroke-width: 1.5"/>
    <path d="M 398.487273 252.923771 
L 398.487273 178.95073 
" clip-path="url(#p77abb29e12)" style="fill: none; stroke: #0000ff; stroke-opacity: 0.7; stroke-width: 1.5"/>
   </g>
   <g id="line2d_10">
    <defs>
     <path id="m41ae3e29d5" d="M 5 0 
L -5 -0 
" style="stroke: #0000ff; stroke-opacity: 0.7"/>
    </defs>
    <g clip-path="url(#p77abb29e12)">
     <use xlink:href="#m41ae3e29d5" x="73.832727" y="167.471617" style="fill: #0000ff; fill-opacity: 0.7; stroke: #0000ff; stroke-opacity: 0.7"/>
     <use xlink:href="#m41ae3e29d5" x="109.905455" y="209.114761" style="fill: #0000ff; fill-opacity: 0.7; stroke: #0000ff; stroke-opacity: 0.7"/>
     <use xlink:href="#m41ae3e29d5" x="145.978182" y="201.233381" style="fill: #0000ff; fill-opacity: 0.7; stroke: #0000ff; stroke-opacity: 0.7"/>
     <use xlink:href="#m41ae3e29d5" x="182.050909" y="168.095902" style="fill: #0000ff; fill-opacity: 0.7; stroke: #0000ff; stroke-opacity: 0.7"/>
     <use xlink:href="#m41ae3e29d5" x="218.123636" y="228.31283" style="fill: #0000ff; fill-opacity: 0.7; stroke: #0000ff; stroke-opacity: 0.7"/>
     <use xlink:href="#m41ae3e29d5" x="254.196364" y="221.652941" style="fill: #0000ff; fill-opacity: 0.7; stroke: #0000ff; stroke-opacity: 0.7"/>
     <use xlink:href="#m41ae3e29d5" x="290.269091" y="249.337236" style="fill: #0000ff; fill-opacity: 0.7; stroke: #0000ff; stroke-opacity: 0.7"/>
     <use xlink:href="#m41ae3e29d5" x="326.341818" y="266.626941" style="fill: #0000ff; fill-opacity: 0.7; stroke: #0000ff; stroke-opacity: 0.7"/>
     <use xlink:href="#m41ae3e29d5" x="362.414545" y="217.350636" style="fill: #0000ff; fill-opacity: 0.7; stroke: #0000ff; stroke-opacity: 0.7"/>
     <use xlink:href="#m41ae3e29d5" x="398.487273" y="252.923771" style="fill: #0000ff; fill-opacity: 0.7; stroke: #0000ff; stroke-opacity: 0.7"/>
    </g>
   </g>
   <g id="line2d_11">
    <g clip-path="url(#p77abb29e12)">
     <use xlink:href="#m41ae3e29d5" x="73.832727" y="74.307903" style="fill: #0000ff; fill-opacity: 0.7; stroke: #0000ff; stroke-opacity: 0.7"/>
     <use xlink:href="#m41ae3e29d5" x="109.905455" y="113.7714" style="fill: #0000ff; fill-opacity: 0.7; stroke: #0000ff; stroke-opacity: 0.7"/>
     <use xlink:href="#m41ae3e29d5" x="145.978182" y="118.366671" style="fill: #0000ff; fill-opacity: 0.7; stroke: #0000ff; stroke-opacity: 0.7"/>
     <use xlink:href="#m41ae3e29d5" x="182.050909" y="89.610902" style="fill: #0000ff; fill-opacity: 0.7; stroke: #0000ff; stroke-opacity: 0.7"/>
     <use xlink:href="#m41ae3e29d5" x="218.123636" y="145.790256" style="fill: #0000ff; fill-opacity: 0.7; stroke: #0000ff; stroke-opacity: 0.7"/>
     <use xlink:href="#m41ae3e29d5" x="254.196364" y="149.651382" style="fill: #0000ff; fill-opacity: 0.7; stroke: #0000ff; stroke-opacity: 0.7"/>
     <use xlink:href="#m41ae3e29d5" x="290.269091" y="171.432663" style="fill: #0000ff; fill-opacity: 0.7; stroke: #0000ff; stroke-opacity: 0.7"/>
     <use xlink:href="#m41ae3e29d5" x="326.341818" y="189.665672" style="fill: #0000ff; fill-opacity: 0.7; stroke: #0000ff; stroke-opacity: 0.7"/>
     <use xlink:href="#m41ae3e29d5" x="362.414545" y="144.223401" style="fill: #0000ff; fill-opacity: 0.7; stroke: #0000ff; stroke-opacity: 0.7"/>
     <use xlink:href="#m41ae3e29d5" x="398.487273" y="178.95073" style="fill: #0000ff; fill-opacity: 0.7; stroke: #0000ff; stroke-opacity: 0.7"/>
    </g>
   </g>
   <g id="LineCollection_2">
    <path d="M 73.832727 142.846085 
L 73.832727 53.568 
" clip-path="url(#p77abb29e12)" style="fill: none; stroke: #ffa500; stroke-opacity: 0.7; stroke-width: 1.5"/>
    <path d="M 109.905455 156.981516 
L 109.905455 60.61254 
" clip-path="url(#p77abb29e12)" style="fill: none; stroke: #ffa500; stroke-opacity: 0.7; stroke-width: 1.5"/>
    <path d="M 145.978182 178.954451 
L 145.978182 97.919233 
" clip-path="url(#p77abb29e12)" style="fill: none; stroke: #ffa500; stroke-opacity: 0.7; stroke-width: 1.5"/>
    <path d="M 182.050909 174.63326 
L 182.050909 100.65748 
" clip-path="url(#p77abb29e12)" style="fill: none; stroke: #ffa500; stroke-opacity: 0.7; stroke-width: 1.5"/>
    <path d="M 218.123636 211.13233 
L 218.123636 127.810436 
" clip-path="url(#p77abb29e12)" style="fill: none; stroke: #ffa500; stroke-opacity: 0.7; stroke-width: 1.5"/>
    <path d="M 254.196364 256.429833 
L 254.196364 173.697801 
" clip-path="url(#p77abb29e12)" style="fill: none; stroke: #ffa500; stroke-opacity: 0.7; stroke-width: 1.5"/>
    <path d="M 290.269091 206.949287 
L 290.269091 126.000675 
" clip-path="url(#p77abb29e12)" style="fill: none; stroke: #ffa500; stroke-opacity: 0.7; stroke-width: 1.5"/>
    <path d="M 326.341818 245.334237 
L 326.341818 169.733195 
" clip-path="url(#p77abb29e12)" style="fill: none; stroke: #ffa500; stroke-opacity: 0.7; stroke-width: 1.5"/>
    <path d="M 362.414545 213.758227 
L 362.414545 140.02385 
" clip-path="url(#p77abb29e12)" style="fill: none; stroke: #ffa500; stroke-opacity: 0.7; stroke-width: 1.5"/>
    <path d="M 398.487273 295.488 
L 398.487273 224.224765 
" clip-path="url(#p77abb29e12)" style="fill: none; stroke: #ffa500; stroke-opacity: 0.7; stroke-width: 1.5"/>
   </g>
   <g id="line2d_12">
    <defs>
     <path id="m48376e09d1" d="M 5 0 
L -5 -0 
" style="stroke: #ffa500; stroke-opacity: 0.7"/>
    </defs>
    <g clip-path="url(#p77abb29e12)">
     <use xlink:href="#m48376e09d1" x="73.832727" y="142.846085" style="fill: #ffa500; fill-opacity: 0.7; stroke: #ffa500; stroke-opacity: 0.7"/>
     <use xlink:href="#m48376e09d1" x="109.905455" y="156.981516" style="fill: #ffa500; fill-opacity: 0.7; stroke: #ffa500; stroke-opacity: 0.7"/>
     <use xlink:href="#m48376e09d1" x="145.978182" y="178.954451" style="fill: #ffa500; fill-opacity: 0.7; stroke: #ffa500; stroke-opacity: 0.7"/>
     <use xlink:href="#m48376e09d1" x="182.050909" y="174.63326" style="fill: #ffa500; fill-opacity: 0.7; stroke: #ffa500; stroke-opacity: 0.7"/>
     <use xlink:href="#m48376e09d1" x="218.123636" y="211.13233" style="fill: #ffa500; fill-opacity: 0.7; stroke: #ffa500; stroke-opacity: 0.7"/>
     <use xlink:href="#m48376e09d1" x="254.196364" y="256.429833" style="fill: #ffa500; fill-opacity: 0.7; stroke: #ffa500; stroke-opacity: 0.7"/>
     <use xlink:href="#m48376e09d1" x="290.269091" y="206.949287" style="fill: #ffa500; fill-opacity: 0.7; stroke: #ffa500; stroke-opacity: 0.7"/>
     <use xlink:href="#m48376e09d1" x="326.341818" y="245.334237" style="fill: #ffa500; fill-opacity: 0.7; stroke: #ffa500; stroke-opacity: 0.7"/>
     <use xlink:href="#m48376e09d1" x="362.414545" y="213.758227" style="fill: #ffa500; fill-opacity: 0.7; stroke: #ffa500; stroke-opacity: 0.7"/>
     <use xlink:href="#m48376e09d1" x="398.487273" y="295.488" style="fill: #ffa500; fill-opacity: 0.7; stroke: #ffa500; stroke-opacity: 0.7"/>
    </g>
   </g>
   <g id="line2d_13">
    <g clip-path="url(#p77abb29e12)">
     <use xlink:href="#m48376e09d1" x="73.832727" y="53.568" style="fill: #ffa500; fill-opacity: 0.7; stroke: #ffa500; stroke-opacity: 0.7"/>
     <use xlink:href="#m48376e09d1" x="109.905455" y="60.61254" style="fill: #ffa500; fill-opacity: 0.7; stroke: #ffa500; stroke-opacity: 0.7"/>
     <use xlink:href="#m48376e09d1" x="145.978182" y="97.919233" style="fill: #ffa500; fill-opacity: 0.7; stroke: #ffa500; stroke-opacity: 0.7"/>
     <use xlink:href="#m48376e09d1" x="182.050909" y="100.65748" style="fill: #ffa500; fill-opacity: 0.7; stroke: #ffa500; stroke-opacity: 0.7"/>
     <use xlink:href="#m48376e09d1" x="218.123636" y="127.810436" style="fill: #ffa500; fill-opacity: 0.7; stroke: #ffa500; stroke-opacity: 0.7"/>
     <use xlink:href="#m48376e09d1" x="254.196364" y="173.697801" style="fill: #ffa500; fill-opacity: 0.7; stroke: #ffa500; stroke-opacity: 0.7"/>
     <use xlink:href="#m48376e09d1" x="290.269091" y="126.000675" style="fill: #ffa500; fill-opacity: 0.7; stroke: #ffa500; stroke-opacity: 0.7"/>
     <use xlink:href="#m48376e09d1" x="326.341818" y="169.733195" style="fill: #ffa500; fill-opacity: 0.7; stroke: #ffa500; stroke-opacity: 0.7"/>
     <use xlink:href="#m48376e09d1" x="362.414545" y="140.02385" style="fill: #ffa500; fill-opacity: 0.7; stroke: #ffa500; stroke-opacity: 0.7"/>
     <use xlink:href="#m48376e09d1" x="398.487273" y="224.224765" style="fill: #ffa500; fill-opacity: 0.7; stroke: #ffa500; stroke-opacity: 0.7"/>
    </g>
   </g>
   <g id="LineCollection_3">
    <path d="M 73.832727 202.71888 
L 73.832727 103.647739 
" clip-path="url(#p77abb29e12)" style="fill: none; stroke: #800080; stroke-opacity: 0.7; stroke-width: 1.5"/>
    <path d="M 109.905455 170.927611 
L 109.905455 75.110305 
" clip-path="url(#p77abb29e12)" style="fill: none; stroke: #800080; stroke-opacity: 0.7; stroke-width: 1.5"/>
    <path d="M 145.978182 183.276376 
L 145.978182 89.925355 
" clip-path="url(#p77abb29e12)" style="fill: none; stroke: #800080; stroke-opacity: 0.7; stroke-width: 1.5"/>
    <path d="M 182.050909 168.875697 
L 182.050909 94.6332 
" clip-path="url(#p77abb29e12)" style="fill: none; stroke: #800080; stroke-opacity: 0.7; stroke-width: 1.5"/>
    <path d="M 218.123636 213.265631 
L 218.123636 132.745606 
" clip-path="url(#p77abb29e12)" style="fill: none; stroke: #800080; stroke-opacity: 0.7; stroke-width: 1.5"/>
    <path d="M 254.196364 205.199694 
L 254.196364 119.719215 
" clip-path="url(#p77abb29e12)" style="fill: none; stroke: #800080; stroke-opacity: 0.7; stroke-width: 1.5"/>
    <path d="M 290.269091 163.858236 
L 290.269091 85.678665 
" clip-path="url(#p77abb29e12)" style="fill: none; stroke: #800080; stroke-opacity: 0.7; stroke-width: 1.5"/>
    <path d="M 326.341818 246.381681 
L 326.341818 167.851141 
" clip-path="url(#p77abb29e12)" style="fill: none; stroke: #800080; stroke-opacity: 0.7; stroke-width: 1.5"/>
    <path d="M 362.414545 269.402738 
L 362.414545 185.541325 
" clip-path="url(#p77abb29e12)" style="fill: none; stroke: #800080; stroke-opacity: 0.7; stroke-width: 1.5"/>
    <path d="M 398.487273 222.278459 
L 398.487273 142.289666 
" clip-path="url(#p77abb29e12)" style="fill: none; stroke: #800080; stroke-opacity: 0.7; stroke-width: 1.5"/>
   </g>
   <g id="line2d_14">
    <defs>
     <path id="m5ee73dbac6" d="M 5 0 
L -5 -0 
" style="stroke: #800080; stroke-opacity: 0.7"/>
    </defs>
    <g clip-path="url(#p77abb29e12)">
     <use xlink:href="#m5ee73dbac6" x="73.832727" y="202.71888" style="fill: #800080; fill-opacity: 0.7; stroke: #800080; stroke-opacity: 0.7"/>
     <use xlink:href="#m5ee73dbac6" x="109.905455" y="170.927611" style="fill: #800080; fill-opacity: 0.7; stroke: #800080; stroke-opacity: 0.7"/>
     <use xlink:href="#m5ee73dbac6" x="145.978182" y="183.276376" style="fill: #800080; fill-opacity: 0.7; stroke: #800080; stroke-opacity: 0.7"/>
     <use xlink:href="#m5ee73dbac6" x="182.050909" y="168.875697" style="fill: #800080; fill-opacity: 0.7; stroke: #800080; stroke-opacity: 0.7"/>
     <use xlink:href="#m5ee73dbac6" x="218.123636" y="213.265631" style="fill: #800080; fill-opacity: 0.7; stroke: #800080; stroke-opacity: 0.7"/>
     <use xlink:href="#m5ee73dbac6" x="254.196364" y="205.199694" style="fill: #800080; fill-opacity: 0.7; stroke: #800080; stroke-opacity: 0.7"/>
     <use xlink:href="#m5ee73dbac6" x="290.269091" y="163.858236" style="fill: #800080; fill-opacity: 0.7; stroke: #800080; stroke-opacity: 0.7"/>
     <use xlink:href="#m5ee73dbac6" x="326.341818" y="246.381681" style="fill: #800080; fill-opacity: 0.7; stroke: #800080; stroke-opacity: 0.7"/>
     <use xlink:href="#m5ee73dbac6" x="362.414545" y="269.402738" style="fill: #800080; fill-opacity: 0.7; stroke: #800080; stroke-opacity: 0.7"/>
     <use xlink:href="#m5ee73dbac6" x="398.487273" y="222.278459" style="fill: #800080; fill-opacity: 0.7; stroke: #800080; stroke-opacity: 0.7"/>
    </g>
   </g>
   <g id="line2d_15">
    <g clip-path="url(#p77abb29e12)">
     <use xlink:href="#m5ee73dbac6" x="73.832727" y="103.647739" style="fill: #800080; fill-opacity: 0.7; stroke: #800080; stroke-opacity: 0.7"/>
     <use xlink:href="#m5ee73dbac6" x="109.905455" y="75.110305" style="fill: #800080; fill-opacity: 0.7; stroke: #800080; stroke-opacity: 0.7"/>
     <use xlink:href="#m5ee73dbac6" x="145.978182" y="89.925355" style="fill: #800080; fill-opacity: 0.7; stroke: #800080; stroke-opacity: 0.7"/>
     <use xlink:href="#m5ee73dbac6" x="182.050909" y="94.6332" style="fill: #800080; fill-opacity: 0.7; stroke: #800080; stroke-opacity: 0.7"/>
     <use xlink:href="#m5ee73dbac6" x="218.123636" y="132.745606" style="fill: #800080; fill-opacity: 0.7; stroke: #800080; stroke-opacity: 0.7"/>
     <use xlink:href="#m5ee73dbac6" x="254.196364" y="119.719215" style="fill: #800080; fill-opacity: 0.7; stroke: #800080; stroke-opacity: 0.7"/>
     <use xlink:href="#m5ee73dbac6" x="290.269091" y="85.678665" style="fill: #800080; fill-opacity: 0.7; stroke: #800080; stroke-opacity: 0.7"/>
     <use xlink:href="#m5ee73dbac6" x="326.341818" y="167.851141" style="fill: #800080; fill-opacity: 0.7; stroke: #800080; stroke-opacity: 0.7"/>
     <use xlink:href="#m5ee73dbac6" x="362.414545" y="185.541325" style="fill: #800080; fill-opacity: 0.7; stroke: #800080; stroke-opacity: 0.7"/>
     <use xlink:href="#m5ee73dbac6" x="398.487273" y="142.289666" style="fill: #800080; fill-opacity: 0.7; stroke: #800080; stroke-opacity: 0.7"/>
    </g>
   </g>
   <g id="line2d_16">
    <path d="M 57.6 199.516856 
L 414.72 199.516856 
" clip-path="url(#p77abb29e12)" style="fill: none; stroke-dasharray: 1.5,2.475; stroke-dashoffset: 0; stroke: #808080; stroke-width: 1.5"/>
   </g>
   <g id="line2d_17">
    <defs>
     <path id="m0914503481" d="M 0 3 
C 0.795609 3 1.55874 2.683901 2.12132 2.12132 
C 2.683901 1.55874 3 0.795609 3 0 
C 3 -0.795609 2.683901 -1.55874 2.12132 -2.12132 
C 1.55874 -2.683901 0.795609 -3 0 -3 
C -0.795609 -3 -1.55874 -2.683901 -2.12132 -2.12132 
C -2.683901 -1.55874 -3 -0.795609 -3 0 
C -3 0.795609 -2.683901 1.55874 -2.12132 2.12132 
C -1.55874 2.683901 -0.795609 3 0 3 
z
" style="stroke: #0000ff; stroke-opacity: 0.7"/>
    </defs>
    <g clip-path="url(#p77abb29e12)">
     <use xlink:href="#m0914503481" x="73.832727" y="120.88976" style="fill: #0000ff; fill-opacity: 0.7; stroke: #0000ff; stroke-opacity: 0.7"/>
     <use xlink:href="#m0914503481" x="109.905455" y="161.44308" style="fill: #0000ff; fill-opacity: 0.7; stroke: #0000ff; stroke-opacity: 0.7"/>
     <use xlink:href="#m0914503481" x="145.978182" y="159.800026" style="fill: #0000ff; fill-opacity: 0.7; stroke: #0000ff; stroke-opacity: 0.7"/>
     <use xlink:href="#m0914503481" x="182.050909" y="128.853402" style="fill: #0000ff; fill-opacity: 0.7; stroke: #0000ff; stroke-opacity: 0.7"/>
     <use xlink:href="#m0914503481" x="218.123636" y="187.051543" style="fill: #0000ff; fill-opacity: 0.7; stroke: #0000ff; stroke-opacity: 0.7"/>
     <use xlink:href="#m0914503481" x="254.196364" y="185.652161" style="fill: #0000ff; fill-opacity: 0.7; stroke: #0000ff; stroke-opacity: 0.7"/>
     <use xlink:href="#m0914503481" x="290.269091" y="210.384949" style="fill: #0000ff; fill-opacity: 0.7; stroke: #0000ff; stroke-opacity: 0.7"/>
     <use xlink:href="#m0914503481" x="326.341818" y="228.146307" style="fill: #0000ff; fill-opacity: 0.7; stroke: #0000ff; stroke-opacity: 0.7"/>
     <use xlink:href="#m0914503481" x="362.414545" y="180.787019" style="fill: #0000ff; fill-opacity: 0.7; stroke: #0000ff; stroke-opacity: 0.7"/>
     <use xlink:href="#m0914503481" x="398.487273" y="215.93725" style="fill: #0000ff; fill-opacity: 0.7; stroke: #0000ff; stroke-opacity: 0.7"/>
    </g>
   </g>
   <g id="line2d_18">
    <defs>
     <path id="mde3274b455" d="M 0 3 
C 0.795609 3 1.55874 2.683901 2.12132 2.12132 
C 2.683901 1.55874 3 0.795609 3 0 
C 3 -0.795609 2.683901 -1.55874 2.12132 -2.12132 
C 1.55874 -2.683901 0.795609 -3 0 -3 
C -0.795609 -3 -1.55874 -2.683901 -2.12132 -2.12132 
C -2.683901 -1.55874 -3 -0.795609 -3 0 
C -3 0.795609 -2.683901 1.55874 -2.12132 2.12132 
C -1.55874 2.683901 -0.795609 3 0 3 
z
" style="stroke: #ffa500; stroke-opacity: 0.7"/>
    </defs>
    <g clip-path="url(#p77abb29e12)">
     <use xlink:href="#mde3274b455" x="73.832727" y="98.207042" style="fill: #ffa500; fill-opacity: 0.7; stroke: #ffa500; stroke-opacity: 0.7"/>
     <use xlink:href="#mde3274b455" x="109.905455" y="108.797028" style="fill: #ffa500; fill-opacity: 0.7; stroke: #ffa500; stroke-opacity: 0.7"/>
     <use xlink:href="#mde3274b455" x="145.978182" y="138.436842" style="fill: #ffa500; fill-opacity: 0.7; stroke: #ffa500; stroke-opacity: 0.7"/>
     <use xlink:href="#mde3274b455" x="182.050909" y="137.64537" style="fill: #ffa500; fill-opacity: 0.7; stroke: #ffa500; stroke-opacity: 0.7"/>
     <use xlink:href="#mde3274b455" x="218.123636" y="169.471383" style="fill: #ffa500; fill-opacity: 0.7; stroke: #ffa500; stroke-opacity: 0.7"/>
     <use xlink:href="#mde3274b455" x="254.196364" y="215.063817" style="fill: #ffa500; fill-opacity: 0.7; stroke: #ffa500; stroke-opacity: 0.7"/>
     <use xlink:href="#mde3274b455" x="290.269091" y="166.474981" style="fill: #ffa500; fill-opacity: 0.7; stroke: #ffa500; stroke-opacity: 0.7"/>
     <use xlink:href="#mde3274b455" x="326.341818" y="207.533716" style="fill: #ffa500; fill-opacity: 0.7; stroke: #ffa500; stroke-opacity: 0.7"/>
     <use xlink:href="#mde3274b455" x="362.414545" y="176.891038" style="fill: #ffa500; fill-opacity: 0.7; stroke: #ffa500; stroke-opacity: 0.7"/>
     <use xlink:href="#mde3274b455" x="398.487273" y="259.856382" style="fill: #ffa500; fill-opacity: 0.7; stroke: #ffa500; stroke-opacity: 0.7"/>
    </g>
   </g>
   <g id="line2d_19">
    <defs>
     <path id="m1ebe6a700b" d="M 0 3 
C 0.795609 3 1.55874 2.683901 2.12132 2.12132 
C 2.683901 1.55874 3 0.795609 3 0 
C 3 -0.795609 2.683901 -1.55874 2.12132 -2.12132 
C 1.55874 -2.683901 0.795609 -3 0 -3 
C -0.795609 -3 -1.55874 -2.683901 -2.12132 -2.12132 
C -2.683901 -1.55874 -3 -0.795609 -3 0 
C -3 0.795609 -2.683901 1.55874 -2.12132 2.12132 
C -1.55874 2.683901 -0.795609 3 0 3 
z
" style="stroke: #800080; stroke-opacity: 0.7"/>
    </defs>
    <g clip-path="url(#p77abb29e12)">
     <use xlink:href="#m1ebe6a700b" x="73.832727" y="153.18331" style="fill: #800080; fill-opacity: 0.7; stroke: #800080; stroke-opacity: 0.7"/>
     <use xlink:href="#m1ebe6a700b" x="109.905455" y="123.018958" style="fill: #800080; fill-opacity: 0.7; stroke: #800080; stroke-opacity: 0.7"/>
     <use xlink:href="#m1ebe6a700b" x="145.978182" y="136.600865" style="fill: #800080; fill-opacity: 0.7; stroke: #800080; stroke-opacity: 0.7"/>
     <use xlink:href="#m1ebe6a700b" x="182.050909" y="131.754449" style="fill: #800080; fill-opacity: 0.7; stroke: #800080; stroke-opacity: 0.7"/>
     <use xlink:href="#m1ebe6a700b" x="218.123636" y="173.005618" style="fill: #800080; fill-opacity: 0.7; stroke: #800080; stroke-opacity: 0.7"/>
     <use xlink:href="#m1ebe6a700b" x="254.196364" y="162.459455" style="fill: #800080; fill-opacity: 0.7; stroke: #800080; stroke-opacity: 0.7"/>
     <use xlink:href="#m1ebe6a700b" x="290.269091" y="124.768451" style="fill: #800080; fill-opacity: 0.7; stroke: #800080; stroke-opacity: 0.7"/>
     <use xlink:href="#m1ebe6a700b" x="326.341818" y="207.116411" style="fill: #800080; fill-opacity: 0.7; stroke: #800080; stroke-opacity: 0.7"/>
     <use xlink:href="#m1ebe6a700b" x="362.414545" y="227.472031" style="fill: #800080; fill-opacity: 0.7; stroke: #800080; stroke-opacity: 0.7"/>
     <use xlink:href="#m1ebe6a700b" x="398.487273" y="182.284063" style="fill: #800080; fill-opacity: 0.7; stroke: #800080; stroke-opacity: 0.7"/>
    </g>
   </g>
   <g id="patch_3">
    <path d="M 57.6 307.584 
L 57.6 41.472 
" style="fill: none; stroke: #000000; stroke-width: 0.8; stroke-linejoin: miter; stroke-linecap: square"/>
   </g>
   <g id="patch_4">
    <path d="M 414.72 307.584 
L 414.72 41.472 
" style="fill: none; stroke: #000000; stroke-width: 0.8; stroke-linejoin: miter; stroke-linecap: square"/>
   </g>
   <g id="patch_5">
    <path d="M 57.6 307.584 
L 414.72 307.584 
" style="fill: none; stroke: #000000; stroke-width: 0.8; stroke-linejoin: miter; stroke-linecap: square"/>
   </g>
   <g id="patch_6">
    <path d="M 57.6 41.472 
L 414.72 41.472 
" style="fill: none; stroke: #000000; stroke-width: 0.8; stroke-linejoin: miter; stroke-linecap: square"/>
   </g>
   <g id="legend_1">
    <g id="patch_7">
     <path d="M 328.92 93.872 
L 407.72 93.872 
Q 409.72 93.872 409.72 91.872 
L 409.72 48.472 
Q 409.72 46.472 407.72 46.472 
L 328.92 46.472 
Q 326.92 46.472 326.92 48.472 
L 326.92 91.872 
Q 326.92 93.872 328.92 93.872 
z
" style="fill: #ffffff; opacity: 0.8; stroke: #cccccc; stroke-linejoin: miter"/>
    </g>
    <g id="LineCollection_4">
     <path d="M 340.92 59.672 
L 340.92 49.672 
" style="fill: none; stroke: #0000ff; stroke-opacity: 0.7; stroke-width: 1.5"/>
    </g>
    <g id="line2d_20">
     <g>
      <use xlink:href="#m41ae3e29d5" x="340.92" y="59.672" style="fill: #0000ff; fill-opacity: 0.7; stroke: #0000ff; stroke-opacity: 0.7"/>
     </g>
    </g>
    <g id="line2d_21">
     <g>
      <use xlink:href="#m41ae3e29d5" x="340.92" y="49.672" style="fill: #0000ff; fill-opacity: 0.7; stroke: #0000ff; stroke-opacity: 0.7"/>
     </g>
    </g>
    <g id="line2d_22"/>
    <g id="line2d_23">
     <g>
      <use xlink:href="#m0914503481" x="340.92" y="54.672" style="fill: #0000ff; fill-opacity: 0.7; stroke: #0000ff; stroke-opacity: 0.7"/>
     </g>
    </g>
    <g id="text_12">
     <!-- $\beta = 0.10$ -->
     <g transform="translate(358.92 58.172) scale(0.1 -0.1)">
      <defs>
       <path id="DejaVuSans-Oblique-3b2" d="M 872 216 
L 572 -1331 
L -6 -1331 
L 928 3478 
Q 1206 4903 2538 4903 
Q 3888 4903 3659 3700 
Q 3503 2844 2894 2531 
Q 3713 2250 3553 1416 
Q 3272 -69 1759 -66 
Q 1097 -63 872 216 
z
M 1019 966 
Q 1259 422 1875 425 
Q 2775 425 2966 1406 
Q 3138 2288 1675 2219 
L 1778 2750 
Q 2909 2731 3106 3750 
Q 3241 4438 2509 4434 
Q 1691 4434 1503 3459 
L 1019 966 
z
" transform="scale(0.015625)"/>
       <path id="DejaVuSans-3d" d="M 678 2906 
L 4684 2906 
L 4684 2381 
L 678 2381 
L 678 2906 
z
M 678 1631 
L 4684 1631 
L 4684 1100 
L 678 1100 
L 678 1631 
z
" transform="scale(0.015625)"/>
       <path id="DejaVuSans-31" d="M 794 531 
L 1825 531 
L 1825 4091 
L 703 3866 
L 703 4441 
L 1819 4666 
L 2450 4666 
L 2450 531 
L 3481 531 
L 3481 0 
L 794 0 
L 794 531 
z
" transform="scale(0.015625)"/>
      </defs>
      <use xlink:href="#DejaVuSans-Oblique-3b2" transform="translate(0 0.390625)"/>
      <use xlink:href="#DejaVuSans-3d" transform="translate(83.300781 0.390625)"/>
      <use xlink:href="#DejaVuSans-30" transform="translate(186.572266 0.390625)"/>
      <use xlink:href="#DejaVuSans-2e" transform="translate(250.195312 0.390625)"/>
      <use xlink:href="#DejaVuSans-31" transform="translate(281.982422 0.390625)"/>
      <use xlink:href="#DejaVuSans-30" transform="translate(345.605469 0.390625)"/>
     </g>
    </g>
    <g id="LineCollection_5">
     <path d="M 340.92 74.472 
L 340.92 64.472 
" style="fill: none; stroke: #ffa500; stroke-opacity: 0.7; stroke-width: 1.5"/>
    </g>
    <g id="line2d_24">
     <g>
      <use xlink:href="#m48376e09d1" x="340.92" y="74.472" style="fill: #ffa500; fill-opacity: 0.7; stroke: #ffa500; stroke-opacity: 0.7"/>
     </g>
    </g>
    <g id="line2d_25">
     <g>
      <use xlink:href="#m48376e09d1" x="340.92" y="64.472" style="fill: #ffa500; fill-opacity: 0.7; stroke: #ffa500; stroke-opacity: 0.7"/>
     </g>
    </g>
    <g id="line2d_26"/>
    <g id="line2d_27">
     <g>
      <use xlink:href="#mde3274b455" x="340.92" y="69.472" style="fill: #ffa500; fill-opacity: 0.7; stroke: #ffa500; stroke-opacity: 0.7"/>
     </g>
    </g>
    <g id="text_13">
     <!-- $\beta = 1.58$ -->
     <g transform="translate(358.92 72.972) scale(0.1 -0.1)">
      <use xlink:href="#DejaVuSans-Oblique-3b2" transform="translate(0 0.390625)"/>
      <use xlink:href="#DejaVuSans-3d" transform="translate(83.300781 0.390625)"/>
      <use xlink:href="#DejaVuSans-31" transform="translate(186.572266 0.390625)"/>
      <use xlink:href="#DejaVuSans-2e" transform="translate(250.195312 0.390625)"/>
      <use xlink:href="#DejaVuSans-35" transform="translate(281.982422 0.390625)"/>
      <use xlink:href="#DejaVuSans-38" transform="translate(345.605469 0.390625)"/>
     </g>
    </g>
    <g id="LineCollection_6">
     <path d="M 340.92 89.272 
L 340.92 79.272 
" style="fill: none; stroke: #800080; stroke-opacity: 0.7; stroke-width: 1.5"/>
    </g>
    <g id="line2d_28">
     <g>
      <use xlink:href="#m5ee73dbac6" x="340.92" y="89.272" style="fill: #800080; fill-opacity: 0.7; stroke: #800080; stroke-opacity: 0.7"/>
     </g>
    </g>
    <g id="line2d_29">
     <g>
      <use xlink:href="#m5ee73dbac6" x="340.92" y="79.272" style="fill: #800080; fill-opacity: 0.7; stroke: #800080; stroke-opacity: 0.7"/>
     </g>
    </g>
    <g id="line2d_30"/>
    <g id="line2d_31">
     <g>
      <use xlink:href="#m1ebe6a700b" x="340.92" y="84.272" style="fill: #800080; fill-opacity: 0.7; stroke: #800080; stroke-opacity: 0.7"/>
     </g>
    </g>
    <g id="text_14">
     <!-- $\beta = 12.59$ -->
     <g transform="translate(358.92 87.772) scale(0.1 -0.1)">
      <defs>
       <path id="DejaVuSans-39" d="M 703 97 
L 703 672 
Q 941 559 1184 500 
Q 1428 441 1663 441 
Q 2288 441 2617 861 
Q 2947 1281 2994 2138 
Q 2813 1869 2534 1725 
Q 2256 1581 1919 1581 
Q 1219 1581 811 2004 
Q 403 2428 403 3163 
Q 403 3881 828 4315 
Q 1253 4750 1959 4750 
Q 2769 4750 3195 4129 
Q 3622 3509 3622 2328 
Q 3622 1225 3098 567 
Q 2575 -91 1691 -91 
Q 1453 -91 1209 -44 
Q 966 3 703 97 
z
M 1959 2075 
Q 2384 2075 2632 2365 
Q 2881 2656 2881 3163 
Q 2881 3666 2632 3958 
Q 2384 4250 1959 4250 
Q 1534 4250 1286 3958 
Q 1038 3666 1038 3163 
Q 1038 2656 1286 2365 
Q 1534 2075 1959 2075 
z
" transform="scale(0.015625)"/>
      </defs>
      <use xlink:href="#DejaVuSans-Oblique-3b2" transform="translate(0 0.390625)"/>
      <use xlink:href="#DejaVuSans-3d" transform="translate(83.300781 0.390625)"/>
      <use xlink:href="#DejaVuSans-31" transform="translate(186.572266 0.390625)"/>
      <use xlink:href="#DejaVuSans-32" transform="translate(250.195312 0.390625)"/>
      <use xlink:href="#DejaVuSans-2e" transform="translate(313.818359 0.390625)"/>
      <use xlink:href="#DejaVuSans-35" transform="translate(345.605469 0.390625)"/>
      <use xlink:href="#DejaVuSans-39" transform="translate(403.728516 0.390625)"/>
     </g>
    </g>
   </g>
  </g>
 </g>
 <defs>
  <clipPath id="p77abb29e12">
   <rect x="57.6" y="41.472" width="357.12" height="266.112"/>
  </clipPath>
 </defs>
</svg>
